<svg width="106" height="100" viewBox="0 0 106 100" fill="none" xmlns="http://www.w3.org/2000/svg">
    <circle cx="56" cy="50" r="50" fill="#ffffff" />
    <g filter="url(#filter0_d_17_4)">
        <path
            d="M74.1024 82.192C70.5184 82.192 67.7984 81.04 65.9424 78.736C64.1504 76.368 62.9344 71.984 62.2944 65.584C61.9104 62.256 61.5264 57.936 61.1424 52.624C56.6624 53.968 52.1504 55.376 47.6064 56.848L44.3424 65.872C43.7024 67.6 43.2544 68.848 42.9984 69.616C42.7424 70.32 42.2624 71.408 41.5584 72.88C40.9184 74.352 40.3424 75.44 39.8304 76.144C39.3824 76.784 38.7104 77.616 37.8144 78.64C36.9824 79.664 36.1184 80.4 35.2224 80.848C32.9184 82 30.4544 82.576 27.8304 82.576C25.2064 82.576 23.0624 81.648 21.3984 79.792C19.7984 77.872 18.9984 75.536 18.9984 72.784C18.9984 72.016 19.0624 71.216 19.1904 70.384C20.0224 64.24 26.3264 58.64 38.1024 53.584C41.4304 45.072 46.9664 30.736 54.7104 10.576C56.7584 9.424 59.3504 8.848 62.4864 8.848C63.1904 8.848 63.8624 8.848 64.5024 8.848C65.1424 8.848 65.9104 8.848 66.8064 8.848C67.7664 8.848 68.9504 9.04 70.3584 9.424C70.4224 12.432 71.8944 31.088 74.7744 65.392C75.0304 68.272 75.3824 70.16 75.8304 71.056C76.2784 71.888 77.0464 72.304 78.1344 72.304C79.9264 72.304 82.2944 71.088 85.2384 68.656C88.2464 66.224 90.9344 63.184 93.3024 59.536L95.9904 66.064L93.6864 69.136C86.9664 77.84 80.4384 82.192 74.1024 82.192ZM58.8384 25.552L50.4864 48.88C54.9664 47.344 58.2944 46.224 60.4704 45.52L58.8384 25.552ZM34.7424 61.936C28.7904 64.944 25.8144 67.888 25.8144 70.768C25.8144 72.816 26.5824 73.84 28.1184 73.84C29.2704 73.84 30.1984 73.008 30.9024 71.344C31.7344 69.552 33.0144 66.416 34.7424 61.936Z"
            fill="url(#paint0_linear_17_4)" />
    </g>
    <defs>
        <filter id="filter0_d_17_4" x="14.9984" y="8.84814" width="84.992" height="81.728" filterUnits="userSpaceOnUse"
            color-interpolation-filters="sRGB">
            <feFlood flood-opacity="0" result="BackgroundImageFix" />
            <feColorMatrix in="SourceAlpha" type="matrix" values="0 0 0 0 0 0 0 0 0 0 0 0 0 0 0 0 0 0 127 0"
                result="hardAlpha" />
            <feOffset dy="4" />
            <feGaussianBlur stdDeviation="2" />
            <feComposite in2="hardAlpha" operator="out" />
            <feColorMatrix type="matrix" values="0 0 0 0 0 0 0 0 0 0 0 0 0 0 0 0 0 0 0.25 0" />
            <feBlend mode="normal" in2="BackgroundImageFix" result="effect1_dropShadow_17_4" />
            <feBlend mode="normal" in="SourceGraphic" in2="effect1_dropShadow_17_4" result="shape" />
        </filter>
        <linearGradient id="paint0_linear_17_4" x1="50" y1="5" x2="50" y2="95" gradientUnits="userSpaceOnUse">
            <stop stop-color="#0C2059" />
            <stop offset="1" stop-color="#E03C03" />
        </linearGradient>
    </defs>
</svg>