<svg width="1960" height="1863" viewBox="0 0 1960 1863" fill="none" xmlns="http://www.w3.org/2000/svg">

<g clip-path="url(#clip0_0_1)">
<path d="M1959.76 0.23291H0.245117V1862.77H1959.76V0.23291Z" fill="white"/>
<path d="M1959.51 0.46575V1862.53H0.49V0.46575H1959.51ZM1960 0H0V1863H1960V0Z" fill="black"/>
<mask id="mask0_0_1" style="mask-type:luminance" maskUnits="userSpaceOnUse" x="337" y="429" width="1287" height="1246">
<path d="M1303.72 1094.41V1674.74H1623.42V429H1303.72L980.21 1116.49L656.703 429H337V1674.74H656.703V1094.41L823.222 1440.99H1137.2V1440.98L1137.2 1440.99L1303.72 1094.41Z" fill="white"/>
</mask>
<g mask="url(#mask0_0_1)">
<path d="M1623.42 429H337V1674.74H1623.42V429Z" fill="url(#paint0_linear_0_1)"/>
</g>
<mask id="mask1_0_1" style="mask-type:luminance" maskUnits="userSpaceOnUse" x="337" y="429" width="534" height="1246">
<path d="M656.702 1091.34C656.887 1054.06 663.969 692.552 870.93 884.26L656.702 429H337V1674.74H656.702V1094.41C656.702 1094.41 656.693 1093.34 656.702 1091.34Z" fill="white"/>
</mask>
<g mask="url(#mask1_0_1)">
<path d="M870.93 429H337V1674.74H870.93V429Z" fill="url(#paint1_linear_0_1)"/>
</g>
<path fill-rule="evenodd" clip-rule="evenodd" d="M763.817 656.629L656.702 429.001H337V1674.74C337 1674.74 494.689 308.832 763.817 656.629Z" fill="#39D4FF"/>
<mask id="mask2_0_1" style="mask-type:luminance" maskUnits="userSpaceOnUse" x="656" y="429" width="968" height="1012">
<path d="M870.93 884.261C663.969 692.552 656.887 1054.07 656.703 1091.34C656.693 1093.34 656.703 1094.41 656.703 1094.41L823.222 1440.99H1137.2L1303.72 1094.41C1303.72 1094.41 1328.37 1031.98 1365.59 965.642C1434.03 843.655 1545 708.459 1623.42 923.997V429.002H1303.72L980.21 1116.5L870.93 884.261ZM1137.2 1440.99V1440.98V1440.99Z" fill="white"/>
</mask>
<g mask="url(#mask2_0_1)">
<path d="M1623.42 429H656.693V1440.99H1623.42V429Z" fill="url(#paint2_linear_0_1)"/>
</g>
<mask id="mask3_0_1" style="mask-type:luminance" maskUnits="userSpaceOnUse" x="1303" y="810" width="321" height="865">
<path d="M1303.72 1094.41V1674.74H1623.42V923.995C1545 708.457 1434.03 843.653 1365.59 965.64C1328.37 1031.98 1303.72 1094.41 1303.72 1094.41Z" fill="white"/>
</mask>
<g mask="url(#mask3_0_1)">
<path d="M1623.42 708.457H1303.72V1674.74H1623.42V708.457Z" fill="url(#paint3_linear_0_1)"/>
</g>
<mask id="mask4_0_1" style="mask-type:luminance" maskUnits="userSpaceOnUse" x="656" y="828" width="577" height="613">
<path d="M1137.2 1304.55C1063.82 1281.89 992.801 1142.22 981.709 1119.59C980.724 1117.58 980.211 1116.49 980.211 1116.49L870.931 884.261C663.97 692.552 656.888 1054.07 656.704 1091.34C656.694 1093.34 656.704 1094.41 656.704 1094.41L823.223 1440.99H1137.2L1232.35 1242.95C1203.64 1301.29 1170.18 1314.74 1137.2 1304.55Z" fill="white"/>
</mask>
<g mask="url(#mask4_0_1)">
<path d="M1232.35 692.552H656.693V1440.99H1232.35V692.552Z" fill="url(#paint4_linear_0_1)"/>
</g>
<path fill-rule="evenodd" clip-rule="evenodd" d="M1303.72 728.936C1382.96 659.29 1463.79 611.98 1529.52 624.447C1566.64 631.486 1598.94 657.589 1623.42 709.498V429.001H1303.72L980.21 1116.49C980.21 1116.49 1138.5 874.16 1303.72 728.936Z" fill="#39D4FF"/>
<path fill-rule="evenodd" clip-rule="evenodd" d="M792.329 1376.69C623.758 820.146 870.93 884.26 870.93 884.26C663.969 692.551 656.887 1054.06 656.703 1091.34C656.693 1093.34 656.703 1094.41 656.703 1094.41L792.329 1376.69Z" fill="#102770"/>
<path fill-rule="evenodd" clip-rule="evenodd" d="M1303.72 1303.49C1478.54 745.245 1623.42 923.995 1623.42 923.995C1545 708.457 1434.03 843.653 1365.59 965.64C1328.37 1031.98 1303.72 1094.41 1303.72 1094.41V1303.49Z" fill="#102770"/>
<path fill-rule="evenodd" clip-rule="evenodd" d="M656.702 1091.34C656.887 1054.06 663.969 692.552 870.93 884.26L854.688 849.738C701.174 750.359 664.196 888.993 656.703 993.696C652.895 1046.9 656.702 1091.34 656.702 1091.34Z" fill="#5EF9F6"/>
<path fill-rule="evenodd" clip-rule="evenodd" d="M1365.59 965.64C1434.03 843.653 1545 708.457 1623.42 923.995V889.619C1549.53 726.557 1463.82 794.847 1399.75 894.534C1343.35 982.302 1303.72 1094.41 1303.72 1094.41C1303.72 1094.41 1328.37 1031.98 1365.59 965.64Z" fill="#5EF9F6"/>
<path d="M603.385 379.9C586.585 379.9 573.835 374.5 565.135 363.7C556.735 352.6 551.035 332.05 548.035 302.05C546.235 286.45 544.435 266.2 542.635 241.3C521.635 247.6 500.485 254.2 479.185 261.1L463.885 303.4C460.885 311.5 458.785 317.35 457.585 320.95C456.385 324.25 454.135 329.35 450.835 336.25C447.835 343.15 445.135 348.25 442.735 351.55C440.635 354.55 437.485 358.45 433.285 363.25C429.385 368.05 425.335 371.5 421.135 373.6C410.335 379 398.785 381.7 386.485 381.7C374.185 381.7 364.135 377.35 356.335 368.65C348.835 359.65 345.085 348.7 345.085 335.8C345.085 332.2 345.385 328.45 345.985 324.55C349.885 295.75 379.435 269.5 434.635 245.8C450.235 205.9 476.185 138.7 512.485 44.2C522.085 38.8 534.235 36.1 548.935 36.1C552.235 36.1 555.385 36.1 558.385 36.1C561.385 36.1 564.985 36.1 569.185 36.1C573.685 36.1 579.235 37 585.835 38.8C586.135 52.9 593.035 140.35 606.535 301.15C607.735 314.65 609.385 323.5 611.485 327.7C613.585 331.6 617.185 333.55 622.285 333.55C630.685 333.55 641.785 327.85 655.585 316.45C669.685 305.05 682.285 290.8 693.385 273.7L705.985 304.3L695.185 318.7C663.685 359.5 633.085 379.9 603.385 379.9ZM531.835 114.4L492.685 223.75C513.685 216.55 529.285 211.3 539.485 208L531.835 114.4ZM418.885 284.95C390.985 299.05 377.035 312.85 377.035 326.35C377.035 335.95 380.635 340.75 387.835 340.75C393.235 340.75 397.585 336.85 400.885 329.05C404.785 320.65 410.785 305.95 418.885 284.95ZM792.776 379L809.876 229.6C809.876 221.2 807.776 214.3 803.576 208.9C799.676 203.2 792.626 200.35 782.426 200.35C772.226 200.35 763.826 205.3 757.226 215.2C750.626 224.8 746.426 235 744.626 245.8C734.126 320.5 728.276 364.9 727.076 379H666.776L691.526 167.5C704.126 164.2 713.726 162.55 720.326 162.55C739.226 162.55 749.576 168.85 751.376 181.45C766.076 168.85 782.126 162.55 799.526 162.55C834.326 162.55 856.526 172.9 866.126 193.6C880.826 172.6 901.826 162.1 929.126 162.1C949.226 162.1 965.126 167.35 976.826 177.85C988.526 188.05 994.376 200.95 994.376 216.55C994.376 221.05 993.476 229 991.676 240.4C984.776 285.4 981.326 311.8 981.326 319.6C981.326 333.7 985.976 340.75 995.276 340.75C1003.08 340.75 1011.33 335.65 1020.03 325.45C1029.03 314.95 1036.23 298.9 1041.63 277.3C1051.83 288.1 1057.98 296.65 1060.08 302.95C1044.48 355.15 1016.88 381.25 977.276 381.25C958.676 381.25 944.876 375.55 935.876 364.15C926.876 352.75 922.376 340.75 922.376 328.15L933.176 228.7C933.176 220.6 931.076 213.85 926.876 208.45C922.676 203.05 915.926 200.35 906.626 200.35C897.626 200.35 889.676 203.8 882.776 210.7C875.876 217.6 871.076 226.45 868.376 237.25C859.376 313.45 853.526 360.7 850.826 379H792.776ZM1061.75 47.8C1068.65 40.6 1077.05 37 1086.95 37C1096.85 37 1105.25 40.6 1112.15 47.8C1119.35 54.7 1122.95 63.1 1122.95 73C1122.95 82.9 1119.35 91.3 1112.15 98.2C1105.25 105.1 1096.85 108.55 1086.95 108.55C1077.05 108.55 1068.65 105.1 1061.75 98.2C1054.85 91.3 1051.4 82.9 1051.4 73C1051.4 63.1 1054.85 54.7 1061.75 47.8ZM1043.3 179.65C1046.3 174.25 1052 170.2 1060.4 167.5C1068.8 164.5 1077.05 163 1085.15 163C1093.55 163 1100.9 164.05 1107.2 166.15C1095.5 256.45 1089.65 302.05 1089.65 302.95C1088.15 308.95 1087.4 314.05 1087.4 318.25C1087.4 322.15 1087.7 325.6 1088.3 328.6C1089.5 336.4 1094.9 340.3 1104.5 340.3C1114.4 340.3 1123.4 334 1131.5 321.4C1139.9 308.5 1146.2 293.95 1150.4 277.75C1152.5 278.95 1155.8 282.55 1160.3 288.55C1164.8 294.55 1167.5 299.05 1168.4 302.05C1162.4 326.05 1152.2 345.4 1137.8 360.1C1123.4 374.8 1106.15 382.15 1086.05 382.15C1065.95 382.15 1050.95 377.2 1041.05 367.3C1031.45 357.4 1026.65 344.65 1026.65 329.05C1026.65 325.75 1026.8 322.3 1027.1 318.7L1043.3 179.65ZM1259.95 328.6L1270.75 228.25C1270.75 220.15 1268.65 213.4 1264.45 208C1260.25 202.6 1253.2 199.9 1243.3 199.9C1233.7 199.9 1225.45 204.25 1218.55 212.95C1211.95 221.35 1207.75 232 1205.95 244.9C1195.15 327.1 1189.45 371.8 1188.85 379H1128.1L1152.85 167.05C1165.45 163.75 1175.05 162.1 1181.65 162.1C1201.75 162.1 1212.25 169.45 1213.15 184.15C1227.85 169.75 1245.4 162.55 1265.8 162.55C1286.5 162.55 1302.7 167.65 1314.4 177.85C1326.1 188.05 1331.95 200.95 1331.95 216.55C1331.95 220.75 1331.05 228.7 1329.25 240.4C1322.35 286 1318.9 312.55 1318.9 320.05C1318.9 333.85 1323.55 340.75 1332.85 340.75C1353.25 340.75 1368.7 319.45 1379.2 276.85C1389.4 287.65 1395.55 296.2 1397.65 302.5C1381.75 355.3 1354.15 381.7 1314.85 381.7C1296.25 381.7 1282.45 376 1273.45 364.6C1264.45 353.2 1259.95 341.2 1259.95 328.6ZM1448.75 278.2C1467.35 274.3 1481.15 266.8 1490.15 255.7C1499.45 244.6 1504.1 233.95 1504.1 223.75C1504.1 213.25 1501.25 206.2 1495.55 202.6C1490.15 198.7 1484.15 196.75 1477.55 196.75C1463.45 196.75 1451 204.7 1440.2 220.6C1429.7 236.2 1424.45 254.95 1424.45 276.85C1424.45 298.45 1429.55 314.65 1439.75 325.45C1450.25 335.95 1463.15 341.2 1478.45 341.2C1500.95 341.2 1522.55 333.4 1543.25 317.8C1563.95 302.2 1580.75 281.8 1593.65 256.6C1600.25 262.9 1606.25 270.7 1611.65 280C1601.75 302.5 1584.2 324.55 1559 346.15C1546.4 356.65 1531.4 365.2 1514 371.8C1496.9 378.4 1479.2 381.7 1460.9 381.7C1430.9 381.7 1407.2 372.55 1389.8 354.25C1371.2 334.45 1361.9 309.1 1361.9 278.2C1361.9 247.3 1373.45 220.3 1396.55 197.2C1419.95 174.1 1447.85 162.55 1480.25 162.55C1503.35 162.55 1522.1 167.65 1536.5 177.85C1550.9 187.75 1558.25 201.25 1558.55 218.35C1558.55 241.45 1549.25 260.2 1530.65 274.6C1512.35 289 1487.15 299.05 1455.05 304.75L1448.75 278.2Z" fill="url(#paint5_linear_0_1)"/>
</g>
<defs>
<linearGradient id="paint0_linear_0_1" x1="960.815" y1="1544.66" x2="1010.23" y2="285.15" gradientUnits="userSpaceOnUse">
<stop stop-color="#00478F"/>
<stop offset="1" stop-color="#29C4FF"/>
</linearGradient>
<linearGradient id="paint1_linear_0_1" x1="560.078" y1="1784.08" x2="643.724" y2="384.246" gradientUnits="userSpaceOnUse">
<stop stop-color="#00478F"/>
<stop offset="1" stop-color="#29C4FF"/>
</linearGradient>
<linearGradient id="paint2_linear_0_1" x1="891.448" y1="1223.32" x2="1528.42" y2="482.334" gradientUnits="userSpaceOnUse">
<stop stop-color="#00478F"/>
<stop offset="1" stop-color="#29C4FF"/>
</linearGradient>
<linearGradient id="paint3_linear_0_1" x1="1603.67" y1="967.987" x2="1118.71" y2="1744.37" gradientUnits="userSpaceOnUse">
<stop stop-color="#00478F"/>
<stop offset="1" stop-color="#29C4FF"/>
</linearGradient>
<linearGradient id="paint4_linear_0_1" x1="685.957" y1="800.153" x2="1265.94" y2="1400.04" gradientUnits="userSpaceOnUse">
<stop stop-color="#00478F"/>
<stop offset="1" stop-color="#29C4FF"/>
</linearGradient>
<linearGradient id="paint5_linear_0_1" x1="944.8" y1="94" x2="944.8" y2="367.98" gradientUnits="userSpaceOnUse">
<stop stop-color="#00478F"/>
<stop offset="1" stop-color="#39D4FF"/>
</linearGradient>
<clipPath id="clip0_0_1">
<rect width="1960" height="1863" rx="210" fill="white"/>
</clipPath>
</defs>
</svg>
